<svg xmlns="http://www.w3.org/2000/svg" viewBox="0 0 400 400" xml:space="preserve">
    <path d="M94.024 237.362c-13.671-.411-12.11 2.94-15.596-11.956-9.814-41.933-2.788-80.672 23.677-114.988 19.707-25.554 46.193-40.59 78.172-44.457 34.971-4.229 66.036 6.119 93.186 28.423 15.17 12.463 26.784 27.665 35.258 45.36 1.432 2.99.956 4.688-1.529 6.736-44.087 36.333-92.795 65.144-144.509 89.1-2.806 1.3-5.623 1.829-8.681 1.82-19.828-.054-39.656-.034-59.978-.038z"/>
    <path d="M377.987 149.81c-10.35 18.608-24.556 33.558-39.768 47.574-14.945 13.77-31.16 25.98-47.945 37.432-2.095 1.429-4.151 2.58-6.843 2.575-30.647-.053-61.293-.032-91.94-.048-.811 0-1.622-.194-2.722-.335.622-2.274 2.528-2.646 4.03-3.412 44.483-22.692 86.707-48.868 124.772-81.378 6.7-5.724 12.975-11.988 18.194-19.172 5.225-7.192 3.57-12.874-4.873-15.807-7.29-2.532-14.84-3.624-22.577-2.38-1.848.298-3.717.6-5.167-.917-6.058-6.342-12.362-12.431-19.425-18.444 4.819-2.912 9.825-3.384 14.528-4.563 14.214-3.566 28.727-5.608 43.343-5.768 8.723-.095 17.487.857 25.986 3.894 16.504 5.897 20.817 22.916 19.257 35.087-1.159 9.047-4.444 17.348-8.85 25.661zM211 310.649h65.17l.36 1.561c-15.011 11.77-32.198 19.045-51.037 21.927-27.028 4.135-52.747-.29-77.523-13.903 3.905-2.887 7.965-3.232 11.449-4.865 8.137-3.814 16.597-5.313 25.623-4.819 8.462.463 16.97.1 25.958.099zM192.466 248.665c1.53 14.082.733 27.877.753 41.66.005 3.374-6.92 4.415-10.45 1.674-.369-.286-.658-.675-.958-.989-8.766 4.197-14.777 3.78-19.721-1.308-5.108-5.256-6.461-15.923-2.9-22.863 3.843-7.492 8.158-8.825 21.949-6.768 1.433-1.206 1.392-2.906 1.49-4.56.5-8.46.83-8.71 9.837-6.846m-10.828 30.145c.083-.82.252-1.641.235-2.458-.099-4.952-3.057-8.233-6.955-7.768-3.82.456-6.53 4.518-5.938 8.905.407 3.011 1.719 5.397 4.895 6.077 3.54.758 6.1-.649 7.763-4.756zM93.856 260.346c3.302-2.496 6.717-1.492 9.969-1.424 1.898.04 2.455 1.455 2.458 3.11.016 9.305.113 18.612-.038 27.915-.053 3.3-6.183 4.971-10.53 2.774-1.17-.592-1.727-1.29-3.35-.707-13.763 4.946-24.873-4.591-22.22-18.93 2.265-12.243 10.361-16.63 23.71-12.738m-.668 21.259c1.899-2.255 1.895-4.926 1.395-7.564-.544-2.87-2.526-4.805-5.295-5.333-2.574-.491-5.035.51-6.362 2.91-1.909 3.451-2.157 7.042.765 10.114 2.745 2.886 5.857 2.589 9.497-.127zM253.472 291.558c-1.744-.915-2.682.405-3.813.926-6.876 3.165-14.343 1.259-18.236-5.203-4.177-6.934-4.004-14.287-.493-21.41 1.93-3.913 5.586-6.94 9.797-6.88 6.899.099 13.76.971 20.68-.11 2.435-.382 2.918 1.619 2.916 3.643-.012 8.982.098 17.965-.063 26.943-.079 4.419-5.425 5.554-10.788 2.091m-.903-18.655c-1.775-3.563-4.439-5.282-8.399-3.693-3.65 1.463-5.284 6.265-3.62 10.591 1.256 3.267 3.89 4.324 7.186 3.799 4.2-.67 6.142-4.575 4.833-10.697zM91 310.648h42.66c-6.56 3.911-13.635 5.364-20.642 6.99-15.897 3.687-31.947 6.276-48.34 5.631-11.08-.436-21.763-2.59-31.489-8.275-1.402-.82-3.087-1.327-3.892-4.346H91zM314.244 282.699c4.028-1.635 7.758-1.15 11.538-.762-2.05 11.733-16.904 16.153-26.922 8.258-5.5-4.335-7.645-12.873-5.149-20.5 2.228-6.805 8.033-10.93 15.539-11.039 8.71-.127 14.326 3.482 17.19 10.919.679 1.76.754 3.544.916 5.37.31 3.49-1.074 4.697-4.604 4.54-5.907-.262-11.833-.071-17.974-.071 1.847 5.576 3.939 6.227 9.466 3.285m-8.775-12.398c-.47 1.043-.476 2.116.88 2.185 2.833.146 5.743.642 8.613-.47-2.251-4.507-4.123-4.902-9.493-1.715zM138.771 284.948c-.034-3.983.08-7.49-.137-10.975-.217-3.456-2.128-5.706-5.75-5.494-3.399.2-5.53 2.11-5.549 5.787-.023 4.83-.258 9.673.016 14.486.258 4.519-2.375 4.639-5.678 4.661-3.495.024-6.213-.114-6.04-4.883.267-7.319.042-14.654.05-21.982.007-7.654 2.627-9.807 9.995-7.47 2.375.752 4.25.872 6.576.222 9.62-2.691 17.486 2.964 17.97 12.982.264 5.483-.127 10.998.127 16.483.207 4.485-2.401 4.708-5.728 4.636-3.14-.068-6.273.181-5.847-4.47.105-1.157.004-2.331-.005-3.983zM341.806 281.573c2.661-.157 2.779 2.532 4.576 3.157 1.85.643 3.847 1.336 4.813-.745 1.035-2.232-1.314-2.734-2.745-3.26-1.857-.683-3.866-.941-5.784-1.473-5.325-1.475-8.658-5.126-8.794-9.555-.137-4.494 3.321-9.104 8.542-10.394 5.994-1.481 12.034-1.41 16.82 3.273 2.07 2.025 4.796 5.207 2.09 7.695-2.269 2.086-6.344 2.005-9.128-.528-2.14-1.947-4.003-3.47-6.718-1.083.368 2.876 2.748 2.702 4.495 3.31 3.13 1.09 6.42 1.753 9.169 3.79 4.796 3.552 5.33 9.444 1.218 13.883-6.298 6.798-20.538 5.59-25.623-2.187-1.016-1.555-1.632-3.23-1.199-5.2 2.574-1.116 5.282-.377 8.268-.683zM218.493 268.465c-4.05 2.484-1.776 6.144-2.26 9.207-.54 3.417.078 5.845 4.542 6.553 2.778.44 1.29 3.963 1.466 6.126.17 2.075-1.098 2.76-3.08 3-9.1 1.098-14.38-3.384-14.485-12.478-.033-2.827-.016-5.655-.025-8.483-.005-1.524-.24-2.785-1.64-3.9-3.284-2.612-3.398-7.256-.205-9.749 1.383-1.08 1.966-2.237 1.83-3.782-.38-4.317 2.435-4.314 5.464-4.279 3.063.036 6.306-.38 6.08 4.281-.115 2.38.882 3.702 3.441 3.852 3.3.194 2.593 2.836 2.695 4.885.122 2.446.091 4.85-3.823 4.767zM52.018 256.194c.015 8.132.158 15.79-.02 23.439-.091 3.936 1.448 5.514 5.311 5.043 1.147-.14 2.335.083 3.49-.024 3.563-.33 4.524 1.419 4.555 4.747.033 3.62-1.878 4.043-4.734 3.985-4.99-.102-9.994-.236-14.971.033-4.045.218-5.117-1.49-5.052-5.265.183-10.646.073-21.297.06-31.946-.003-2.885-.381-5.856 4.107-5.583 3.576.218 7.86-.942 7.254 5.57zM285.3 251.267c.025 12.763-.128 25.054.114 37.337.085 4.313-1.96 4.88-5.459 4.812-3.418-.068-6.232-.022-6.161-4.799.179-11.953.044-23.91.041-35.867 0-2.287.31-4.751 3.155-4.722 2.93.03 6.856-2.042 8.31 3.24zM68.726 237.353c-8.213.004-15.958.004-23.084.004l24.076-25.197c1.066 7.813 2.211 15.403 3.078 23.024.296 2.598-2.101 1.913-4.07 2.169zM325.21 223.91c.867 3.733.017 7.23-.772 10.745-.381 1.7-1.309 2.653-3.085 2.625-4.105-.064-8.243.53-13.415-.597 5.844-4.947 11.009-9.374 17.273-12.773z"/>
</svg>
