<svg version="1.1" id="Layer_1" xmlns="http://www.w3.org/2000/svg" xmlns:xlink="http://www.w3.org/1999/xlink" x="0px" y="0px"
	 width="100%" viewBox="0 0 400 400" enable-background="new 0 0 400 400" xml:space="preserve">
<path fill="#000000" opacity="1.000000" stroke="none" 
	d="
M94.023552,237.361832 
	C80.352707,236.950684 81.913872,240.302322 78.427773,225.406067 
	C68.614433,183.473282 75.640076,144.734406 102.104630,110.418304 
	C121.812202,84.863861 148.298035,69.828491 180.276550,65.961365 
	C215.248184,61.732285 246.313110,72.079796 273.463135,94.383842 
	C288.633881,106.846802 300.246857,122.049072 308.721161,139.744629 
	C310.152618,142.733749 309.676941,144.432327 307.191986,146.480225 
	C263.105133,182.812881 214.396927,211.623550 162.683014,235.580200 
	C159.876511,236.880325 157.060226,237.408875 154.001831,237.400421 
	C134.174179,237.345642 114.346336,237.365875 94.023552,237.361832 
z"/>
<path fill="#000000" opacity="1.000000" stroke="none" 
	d="
M377.986694,149.809418 
	C367.637146,168.418182 353.431122,183.367798 338.218781,197.383591 
	C323.273773,211.153076 307.058746,223.364746 290.273590,234.815765 
	C288.179169,236.244614 286.122528,237.395416 283.430847,237.390808 
	C252.784409,237.338318 222.137863,237.359131 191.491333,237.343201 
	C190.679932,237.342773 189.868637,237.148926 188.769302,237.008484 
	C189.390625,234.734009 191.297150,234.362076 192.798431,233.596222 
	C237.282242,210.903595 279.505768,184.727692 317.570557,152.217621 
	C324.271881,146.494202 330.545807,140.229584 335.765228,133.045609 
	C340.990265,125.853897 339.334442,120.171989 330.891571,117.239082 
	C323.602783,114.707062 316.051056,113.615242 308.315399,114.859650 
	C306.466736,115.157051 304.597870,115.459404 303.148346,113.941887 
	C297.090240,107.599693 290.785767,101.510658 283.722900,95.498306 
	C288.542023,92.586334 293.547607,92.114426 298.251251,90.934616 
	C312.464966,87.369377 326.978119,85.326950 341.593536,85.167381 
	C350.316956,85.072136 359.081482,86.024330 367.579803,89.060722 
	C384.084381,94.957703 388.397064,111.977386 386.837463,124.148140 
	C385.678192,133.194855 382.392609,141.496323 377.986694,149.809418 
z"/>
<path fill="#000000" opacity="1.000000" stroke="none" 
	d="
M211.000122,310.648773 
	C233.056717,310.648529 254.613297,310.648529 276.169861,310.648529 
	C276.289764,311.169067 276.409668,311.689606 276.529572,312.210144 
	C261.518829,323.979218 244.331696,331.254547 225.493469,334.136505 
	C198.464661,338.271545 172.745667,333.847229 147.970215,320.234436 
	C151.874832,317.347473 155.935043,317.002411 159.418869,315.369385 
	C167.556152,311.555084 176.016113,310.055725 185.041794,310.550018 
	C193.504333,311.013458 202.012207,310.649109 211.000122,310.648773 
z"/>
<path fill="#000000" opacity="1.000000" stroke="none" 
	d="
M192.465973,248.664581 
	C193.995193,262.746613 193.198593,276.542175 193.218933,290.325195 
	C193.223907,293.699463 186.299881,294.739746 182.768707,291.998566 
	C182.400223,291.712524 182.111221,291.324097 181.811417,291.010437 
	C173.045364,295.206909 167.034088,294.789612 162.089859,289.702087 
	C156.982254,284.446442 155.628891,273.779358 159.189178,266.839203 
	C163.032776,259.346771 167.347794,258.013794 181.138794,260.070709 
	C182.571777,258.865479 182.530838,257.165131 182.628799,255.510742 
	C183.129791,247.050186 183.459549,246.801590 192.465973,248.664581 
M181.638290,278.809601 
	C181.721283,277.990143 181.889603,277.168976 181.873291,276.351501 
	C181.774460,271.400238 178.815903,268.118958 174.918121,268.584351 
	C171.098755,269.040375 168.387619,273.102478 168.980347,277.488831 
	C169.387314,280.500488 170.698700,282.886353 173.874542,283.566467 
	C177.414093,284.324493 179.975769,282.916992 181.638290,278.809601 
z"/>
<path fill="#000000" opacity="1.000000" stroke="none" 
	d="
M93.855621,260.346130 
	C97.158211,257.849640 100.572845,258.853882 103.824852,258.921875 
	C105.722984,258.961548 106.280312,260.376526 106.283173,262.031250 
	C106.299278,271.336853 106.396439,280.644043 106.245300,289.947144 
	C106.191673,293.247925 100.062378,294.918152 95.715637,292.721100 
	C94.544975,292.129425 93.987755,291.431030 92.365646,292.013916 
	C78.602104,296.959625 67.491867,287.422638 70.144669,273.084381 
	C72.409920,260.840790 80.506226,256.454468 93.855621,260.346130 
M93.187080,281.604675 
	C95.085670,279.350281 95.082458,276.678925 94.582138,274.041443 
	C94.037521,271.170441 92.056320,269.236206 89.286598,268.707947 
	C86.712784,268.217041 84.251785,269.217499 82.924805,271.617371 
	C81.016113,275.069275 80.768303,278.659607 83.690147,281.731689 
	C86.435318,284.618042 89.547173,284.320801 93.187080,281.604675 
z"/>
<path fill="#000000" opacity="1.000000" stroke="none" 
	d="
M253.472443,291.558380 
	C251.728348,290.643311 250.789627,291.962860 249.658600,292.483612 
	C242.782776,295.649445 235.316010,293.742981 231.423019,287.280884 
	C227.245605,280.346710 227.418991,272.993774 230.930161,265.870789 
	C232.859070,261.957703 236.516449,258.930908 240.727356,258.991058 
	C247.625809,259.089691 254.487015,259.962067 261.406952,258.880249 
	C263.842407,258.499481 264.325195,260.499603 264.322510,262.524445 
	C264.310608,271.505707 264.421204,280.488953 264.260498,289.467407 
	C264.181427,293.885895 258.834656,295.020691 253.472443,291.558380 
M252.569229,272.902924 
	C250.793533,269.340363 248.130386,267.621094 244.170395,269.209564 
	C240.520737,270.673492 238.886047,275.475403 240.549774,279.801208 
	C241.806061,283.067719 244.439438,284.124969 247.736099,283.599701 
	C251.936157,282.930573 253.878464,279.024872 252.569229,272.902924 
z"/>
<path fill="#000000" opacity="1.000000" stroke="none" 
	d="
M91.000099,310.647675 
	C105.553383,310.647400 119.606659,310.647400 133.659943,310.647400 
	C127.100632,314.559479 120.025307,316.011597 113.018394,317.637177 
	C97.121162,321.325287 81.071434,323.914490 64.677505,323.269196 
	C53.598412,322.833038 42.915314,320.679504 33.189190,314.993683 
	C31.786507,314.173706 30.101856,313.667328 29.296679,310.647949 
	C49.904346,310.647949 70.202217,310.647949 91.000099,310.647675 
z"/>
<path fill="#000000" opacity="1.000000" stroke="none" 
	d="
M314.243622,282.698792 
	C318.272491,281.064301 322.002411,281.548065 325.782349,281.937317 
	C323.732544,293.670288 308.877716,298.089508 298.859772,290.194733 
	C293.359406,285.860107 291.214783,277.321655 293.711029,269.695648 
	C295.938812,262.889679 301.744049,258.765259 309.249603,258.656067 
	C317.959778,258.529419 323.576233,262.138458 326.440643,269.574768 
	C327.118591,271.334839 327.194336,273.118713 327.356415,274.945679 
	C327.666107,278.435486 326.282135,279.642059 322.752167,279.485321 
	C316.845490,279.222961 310.918701,279.413635 304.777802,279.413635 
	C306.625061,284.990387 308.716858,285.640656 314.243622,282.698792 
M305.468903,270.300537 
	C304.998444,271.344116 304.992676,272.416992 306.348358,272.486481 
	C309.182220,272.631744 312.092010,273.128235 314.961823,272.015686 
	C312.710571,267.509247 310.838959,267.113983 305.468903,270.300537 
z"/>
<path fill="#000000" opacity="1.000000" stroke="none" 
	d="
M138.771210,284.948059 
	C138.736969,280.964935 138.851791,277.458740 138.633575,273.973389 
	C138.417175,270.517181 136.506165,268.266510 132.883804,268.479401 
	C129.485321,268.679138 127.353386,270.589752 127.335289,274.266266 
	C127.311523,279.096100 127.077049,283.938843 127.351448,288.752167 
	C127.609047,293.270660 124.975853,293.390656 121.672668,293.413269 
	C118.178177,293.437164 115.459877,293.299164 115.633614,288.529572 
	C115.900177,281.211395 115.674950,273.875763 115.682266,266.547546 
	C115.689911,258.893616 118.310394,256.740631 125.677597,259.077118 
	C128.052582,259.830353 129.928558,259.950256 132.253586,259.299866 
	C141.874176,256.608704 149.740021,262.263947 150.223572,272.281525 
	C150.488281,277.765167 150.097046,283.280121 150.350510,288.764801 
	C150.557800,293.250244 147.949814,293.473022 144.623352,293.400787 
	C141.482178,293.332550 138.349762,293.582214 138.775528,288.930084 
	C138.881271,287.774475 138.780319,286.599915 138.771210,284.948059 
z"/>
<path fill="#000000" opacity="1.000000" stroke="none" 
	d="
M341.806091,281.572754 
	C344.467316,281.416168 344.584534,284.105408 346.381897,284.729980 
	C348.232117,285.372986 350.228973,286.066101 351.194641,283.984772 
	C352.230011,281.753296 349.880798,281.251160 348.449799,280.725006 
	C346.592682,280.042145 344.584167,279.783752 342.665863,279.252228 
	C337.340790,277.776794 334.007812,274.126221 333.872253,269.696899 
	C333.734711,265.203156 337.193359,260.592987 342.414124,259.302979 
	C348.408264,257.821869 354.447998,257.893097 359.234589,262.576355 
	C361.303955,264.601074 364.030121,267.782593 361.323425,270.271240 
	C359.055420,272.356567 354.980164,272.275543 352.196289,269.743378 
	C350.055695,267.796417 348.192780,266.272400 345.477631,268.660095 
	C345.846039,271.536041 348.225800,271.362152 349.973206,271.970276 
	C353.103821,273.059845 356.392731,273.722931 359.141754,275.759460 
	C363.937531,279.312225 364.471771,285.203735 360.359650,289.642731 
	C354.061859,296.441071 339.821533,295.233063 334.737366,287.455780 
	C333.721283,285.901459 333.104797,284.225952 333.538239,282.255646 
	C336.111786,281.140076 338.819824,281.879395 341.806091,281.572754 
z"/>
<path fill="#000000" opacity="1.000000" stroke="none" 
	d="
M218.492996,268.465393 
	C214.443848,270.948669 216.717041,274.609131 216.233215,277.671936 
	C215.693466,281.088867 216.311356,283.516602 220.774887,284.224823 
	C223.553223,284.665619 222.064194,288.188446 222.241318,290.351288 
	C222.411194,292.425507 221.142578,293.110931 219.160278,293.350311 
	C210.061859,294.449066 204.780746,289.967407 204.675598,280.873077 
	C204.642914,278.045654 204.659668,275.217651 204.651077,272.389923 
	C204.646454,270.865723 204.411255,269.604523 203.010941,268.490692 
	C199.726501,265.878296 199.612885,261.233551 202.805740,258.741425 
	C204.189224,257.661560 204.772079,256.504272 204.635864,254.959412 
	C204.255173,250.642197 207.070770,250.645004 210.099869,250.680283 
	C213.162567,250.715988 216.406097,250.299149 216.180344,254.960953 
	C216.065048,257.341766 217.061844,258.662659 219.621475,258.812897 
	C222.921799,259.006622 222.213669,261.648865 222.315872,263.698090 
	C222.437851,266.143677 222.407288,268.548187 218.492996,268.465393 
z"/>
<path fill="#000000" opacity="1.000000" stroke="none" 
	d="
M52.017685,256.193787 
	C52.032639,264.326447 52.175873,271.983368 51.998165,279.632812 
	C51.906715,283.569427 53.445507,285.147156 57.308956,284.675903 
	C58.455936,284.535980 59.644367,284.758728 60.798687,284.651886 
	C64.362114,284.322144 65.323433,286.070740 65.353653,289.399323 
	C65.386528,293.019897 63.475956,293.442169 60.619724,293.383820 
	C55.630131,293.281860 50.625935,293.148163 45.648819,293.416504 
	C41.604370,293.634583 40.532494,291.927795 40.597298,288.151642 
	C40.779995,277.505920 40.669876,266.855011 40.657398,256.206146 
	C40.654018,253.320847 40.275505,250.350021 44.764404,250.623138 
	C48.340237,250.840729 52.624741,249.681305 52.017685,256.193787 
z"/>
<path fill="#000000" opacity="1.000000" stroke="none" 
	d="
M285.299194,251.267303 
	C285.325104,264.029510 285.172180,276.320648 285.414307,288.604065 
	C285.499329,292.916809 283.453491,293.484741 279.955109,293.415710 
	C276.537445,293.348206 273.722656,293.394043 273.794037,288.617401 
	C273.972717,276.664154 273.838074,264.706299 273.835419,252.750275 
	C273.834900,250.463470 274.144379,247.998810 276.989899,248.028122 
	C279.920715,248.058289 283.846130,245.986359 285.299194,251.267303 
z"/>
<path fill="#000000" opacity="1.000000" stroke="none" 
	d="
M68.726257,237.352875 
	C60.513359,237.357147 52.767990,237.357147 45.642464,237.357147 
	C53.585930,229.043701 61.451336,220.811966 69.718491,212.159760 
	C70.783661,219.972702 71.928986,227.562515 72.796295,235.183945 
	C73.091995,237.782349 70.694687,237.097031 68.726257,237.352875 
z"/>
<path fill="#000000" opacity="1.000000" stroke="none" 
	d="
M325.210510,223.910095 
	C326.077454,227.642960 325.227295,231.140930 324.438477,234.654572 
	C324.056580,236.355667 323.129242,237.307617 321.353485,237.279907 
	C317.247894,237.215820 313.110199,237.809082 307.937866,236.683105 
	C313.782196,231.736237 318.946747,227.308884 325.210510,223.910095 
z"/>
</svg>